<svg id="Layer_1" data-name="Layer 1" xmlns="http://www.w3.org/2000/svg" viewBox="0 0 800 800"><defs><style>.cls-1{fill:#cd5c5c;stroke:#6dc286;stroke-miterlimit:10;stroke-width:45px;}</style></defs><path class="cls-1" d="M628.48,38.3h-457A133.21,133.21,0,0,0,38.3,171.52v457A133.21,133.21,0,0,0,171.52,761.7h457A133.21,133.21,0,0,0,761.7,628.48v-457A133.21,133.21,0,0,0,628.48,38.3ZM580.85,500.35a80.5,80.5,0,0,1-80.5,80.5H299.65a80.5,80.5,0,0,1-80.5-80.5V299.65a80.5,80.5,0,0,1,80.5-80.5h200.7a80.5,80.5,0,0,1,80.5,80.5Z"/></svg>