<svg id="Layer_1" data-name="Layer 1" xmlns="http://www.w3.org/2000/svg" viewBox="0 0 800 800"><defs><style>.cls-1{fill:#cd5c5c;}</style></defs><path class="cls-1" d="M547.73,400c-3.79,8.52-8.13,16.49-12.56,24.37s-9.16,15.46-14,22.94q-14.52,22.41-30.67,43.2T457,530.89q-17.36,19.59-35.82,38.05t-38,35.86c-13.05,11.58-26.45,22.79-40.37,33.5s-28.25,21-43.2,30.66q-11.22,7.24-23,14c-7.87,4.43-15.86,8.76-24.39,12.54,3.77-8.54,8.1-16.52,12.53-24.4s9.14-15.48,14-23q14.52-22.41,30.66-43.2c10.71-13.91,21.93-27.32,33.5-40.37s23.53-25.71,35.86-38,25-24.25,38-35.81,26.48-22.77,40.39-33.48,28.25-21,43.19-30.68q11.22-7.24,22.95-14C531.24,408.13,539.21,403.79,547.73,400Z"/><path class="cls-1" d="M547.73,400c-8.52-3.79-16.49-8.13-24.36-12.57s-15.47-9.15-22.95-14Q478,358.92,457.23,342.77t-40.39-33.48q-19.59-17.34-38-35.81t-35.86-38c-11.57-13.05-22.79-26.46-33.5-40.37s-21-28.26-30.66-43.2q-7.25-11.24-14-23c-4.43-7.88-8.76-15.86-12.53-24.4,8.53,3.78,16.52,8.11,24.39,12.54s15.49,9.14,23,14q22.42,14.51,43.2,30.66c13.92,10.71,27.32,21.92,40.37,33.49s25.72,23.54,38,35.87,24.25,25,35.82,38.05,22.76,26.47,33.48,40.38,21,28.26,30.67,43.2q7.25,11.22,14,22.94C539.6,383.51,543.94,391.48,547.73,400Z"/></svg>