<svg id="Layer_1" data-name="Layer 1" xmlns="http://www.w3.org/2000/svg" viewBox="0 0 800 800"><defs><style>.cls-1{fill:#cd5c5c;}</style></defs><path class="cls-1" d="M252.27,400c8.52,3.79,16.49,8.13,24.36,12.57s15.47,9.15,22.95,14q22.41,14.54,43.19,30.68t40.39,33.48q19.59,17.34,38,35.81t35.86,38c11.57,13.05,22.79,26.46,33.5,40.37s21,28.26,30.66,43.2q7.24,11.24,14,23c4.43,7.88,8.76,15.86,12.53,24.4-8.53-3.78-16.51-8.11-24.39-12.54s-15.49-9.14-23-14q-22.42-14.51-43.2-30.66c-13.92-10.71-27.32-21.92-40.37-33.5s-25.72-23.53-38-35.86S354.54,544,343,530.89s-22.76-26.47-33.48-40.38-21-28.26-30.67-43.2q-7.24-11.22-14-22.94C260.4,416.49,256.06,408.52,252.27,400Z"/><path class="cls-1" d="M252.27,400c3.79-8.52,8.13-16.49,12.56-24.37s9.16-15.46,14-22.94q14.52-22.41,30.67-43.2T343,269.11q17.36-19.59,35.82-38.05t38-35.87c13.05-11.57,26.45-22.78,40.37-33.49s28.25-21,43.2-30.66q11.22-7.25,23-14c7.88-4.43,15.86-8.76,24.39-12.54-3.77,8.54-8.1,16.52-12.53,24.4s-9.14,15.48-14,23q-14.52,22.41-30.66,43.2c-10.71,13.91-21.93,27.32-33.5,40.37s-23.53,25.71-35.86,38-25,24.25-38,35.81-26.48,22.77-40.39,33.48-28.25,21-43.19,30.68q-11.22,7.24-22.95,14C268.76,391.87,260.79,396.21,252.27,400Z"/></svg>